<?xml version="1.0" encoding="UTF-8" standalone="no"?>
<svg
   viewBox="0 0 489 590"
   width="489"
   height="590"
   version="1.1"
   id="elemento-svg"
   sodipodi:docname="cardiologo.svg"
   inkscape:version="1.3.2 (091e20e, 2023-11-25, custom)"
   xmlns:inkscape="http://www.inkscape.org/namespaces/inkscape"
   xmlns:sodipodi="http://sodipodi.sourceforge.net/DTD/sodipodi-0.dtd"
   xmlns="http://www.w3.org/2000/svg"
   xmlns:svg="http://www.w3.org/2000/svg">
   <defs
      id="defs176" />
   <sodipodi:namedview
      id="namedview176"
      pagecolor="#ffffff"
      bordercolor="#999999"
      borderopacity="1"
      inkscape:showpageshadow="2"
      inkscape:pageopacity="0"
      inkscape:pagecheckerboard="0"
      inkscape:deskcolor="#d1d1d1"
      inkscape:zoom="0.94320853"
      inkscape:cx="41.878332"
      inkscape:cy="341.38792"
      inkscape:window-width="1277"
      inkscape:window-height="1048"
      inkscape:window-x="634"
      inkscape:window-y="1080"
      inkscape:window-maximized="0"
      inkscape:current-layer="elemento-svg" />
   <g
      id="elemento-1"
      style="display:inline">
      <path
         id="seleccion"
         d="m 198,112 c -1.33,-3.99 -4.89,-6.96 -6,-11 -4.96,-4.34 -7.75,-12.34 -14,-15 -0.09,5.18 7.37,12.26 8.75,16.25 1.37,4 10.73,13.52 11.25,9.75 z M 68,52 c 1.18,4.75 2.98,9.16 4,14 4.91,23.32 7.11,48.69 4.99,72.99 -2.12,24.3 -8.15,44.65 -11.99,68.01 5.18,-3.62 8.98,-9.27 14,-13 13.1,-9.74 27.78,-16.89 44,-19 9.55,-2.22 21.4,-2.96 32,-2 4.86,-12.39 12.78,-22.99 21,-33 4.58,-6.54 10.99,-12.38 17,-18 1.5,-1.4 4.11,-3.27 5,-5 -6.44,-1.04 -8.12,-7.52 -13,-11 -8.98,12.07 -19.27,28.49 -32.25,37.75 -12.98,9.26 -31.39,26.91 -49.05,17.55 C 86.04,151.95 95.1,121.81 89.93,105.07 84.75,88.34 82.66,66.02 77,49 c -3.06,2.35 -7.64,-0.81 -9,3 z m 38,-10 c -4.09,-0.59 -7.56,4.36 -11,3 2.86,9.95 10.52,18.5 13.74,29.26 3.22,10.75 8.9,21.24 10.26,32.74 2.86,-21.96 -6.27,-45.24 -13,-65 z M 90,39 c -6.02,1.02 -12.49,2.48 -18,5 -0.18,1.53 -2.82,0.99 -2,3 11.09,-2.5 23.89,-3.13 33,-10 -4.52,-0.06 -8.72,1.28 -13,2 z m 0,0 c 4.28,-0.72 8.48,-2.06 13,-2 -9.11,6.87 -21.91,7.5 -33,10 -0.82,-2.01 1.82,-1.47 2,-3 -4.47,2.05 -5.1,3.56 -4,8 1.36,-3.81 5.94,-0.65 9,-3 5.66,17.02 7.75,39.34 12.93,56.07 5.17,16.74 -3.89,46.88 13.77,56.23 17.66,9.36 36.07,-8.29 49.05,-17.55 12.98,-9.26 23.27,-25.68 32.25,-37.75 4.88,3.48 6.56,9.96 13,11 1.18,-2.28 0.72,-2.84 0,-5 -0.52,3.77 -9.88,-5.75 -11.25,-9.75 C 185.37,98.26 177.91,91.18 178,86 c 6.25,2.66 9.04,10.66 14,15 -0.13,-0.46 0.12,-1.53 0,-2 -1.18,-4.54 -7.67,-11.46 -11.75,-14.25 -4.08,-2.79 -14.42,5.18 -18.25,7.25 -3.54,1.91 -7.16,4.6 -11,6 -4.77,-6.32 -11.25,-10.86 -17,-16 4.71,6.53 12.4,10.17 17,17 -4.41,2.03 -17.24,18.19 -21,9 -3.77,-9.19 -3.37,-19.06 -6.67,-28.33 -3.3,-9.27 -5.7,-16.05 -9.55,-25.45 C 109.92,44.83 109.16,36 97,36 c -2.03,0.25 -5.06,2.43 -7,3 m 16,3 c 6.73,19.76 15.86,43.04 13,65 C 117.64,95.5 111.96,85.01 108.74,74.26 105.52,63.5 97.86,54.95 95,45 c 3.44,1.36 6.91,-3.59 11,-3 z"
         style="display:inline;fill:#698fbf;fill-opacity:1"
         inkscape:label="seleccion" />
   </g>
   <g
      id="elemento-2"
      style="display:inline">
      <path
         id="seleccion"
         d="m 204,195 c 8.48,-14.74 20.47,-36.88 36,-47 -16.27,7.7 -29.33,32.06 -36,47 z m -49,-22 c -0.17,0.43 0,1 0,1 0.5,0 1,0 1,0 2.31,-1.04 1.22,-2.14 2,-4 4.4,-10.46 11.54,-20.77 18,-30 -8.22,10.01 -16.14,20.61 -21,33 z m 31,59 c -0.08,0.49 0,1.5 0,2 0.21,-0.6 1.69,-1.47 2,-2 2.75,-4.72 4.26,-10.79 6,-16 1.22,-3.65 3.28,-6.81 5,-10 1.49,-3.75 3.37,-7.35 5,-11 6.67,-14.94 19.73,-39.3 36,-47 3.98,-1.88 9.09,-2.25 13,-4 15.39,-6.88 27.63,0.21 39,13 2.52,2.84 5.4,5.96 6,10 3.65,0.13 6.46,-0.91 10,-1 -0.23,-0.34 0,-1 0,-1 -3,0 -6,0 -9,0 -5.96,-18.89 -31.96,-31.88 -49.77,-23.77 -17.81,8.11 -29.52,22.89 -37.98,39.02 -8.46,16.13 -22.09,33.58 -25.25,51.75 z m -14,-54 c 20.2,8.82 9.24,30.06 12,47 0.34,2.1 1.09,3.68 1,6 -0.02,0.5 0,1 0,1 0.25,0.25 1,0 1,0 3.16,-18.17 16.79,-35.62 25.25,-51.75 8.46,-16.13 20.17,-30.91 37.98,-39.02 17.81,-8.11 43.81,4.88 49.77,23.77 3,0 6,0 9,0 0.5,0 1,0 1,0 -1.33,-7.85 -7.61,-14.66 -13.75,-21.25 -6.14,-6.59 -13.2,-12.1 -21.58,-15.42 -8.37,-3.32 -24,-3.34 -32,0.34 -8,3.69 -21.76,5.57 -17.67,15.33 -4.32,-2.92 -7.29,-2.05 -4,3 -4.14,0.5 -2.43,-3.87 -6,-3 -11.92,12.07 -24.44,25.51 -29,43 -3.8,-3.27 -7.66,-7.33 -13,-9 z m -14,-8 c -0.78,1.86 0.31,2.96 -2,4 0.25,0.25 0,1 0,1 5.47,-0.2 10.95,1.42 16,3 5.34,1.67 9.2,5.73 13,9 4.56,-17.49 17.08,-30.93 29,-43 3.57,-0.87 1.86,3.5 6,3 -3.29,-5.05 -0.32,-5.92 4,-3 -4.09,-9.76 9.67,-11.64 17.67,-15.33 8,-3.68 23.63,-3.66 32,-0.34 8.38,3.32 15.44,8.83 21.58,15.42 6.14,6.59 12.42,13.4 13.75,21.25 3.89,0.42 7.14,-0.93 11,-1 1.33,-0.03 2.67,0.06 4,0 0.8,-0.2 1.85,-1.78 3,-2 -22.32,-48.12 -92.05,-65.04 -129,-26 -4.99,-0.42 -6.29,-5.64 -10,-7 -0.69,5.09 -10.35,6.51 -8,12 -4.82,-0.05 -9.75,7.52 -12.08,12.92 -2.32,5.41 -7.1,11.14 -9.92,16.08 z m 41,-52 c 5.93,-5.54 -3.94,-12.23 -5,-18 1.59,-0.17 2.03,-2.12 3,-3 -9.23,6.59 6.53,12.17 2,21 z m -7,-19 c 0.12,0.47 -0.13,1.54 0,2 1.11,4.04 4.67,7.01 6,11 0.72,2.16 1.18,2.72 0,5 -0.89,1.73 -3.5,3.6 -5,5 2.16,-1.41 4.28,-1.71 6,-4 4.53,-8.83 -11.23,-14.41 -2,-21 1.82,-1.3 4.11,-2.08 6,-3 0.95,-0.67 1.96,-2.35 3,-3 -4.47,2.07 -10.71,3.75 -14,8 z m 14,-8 c -1.04,0.65 -2.05,2.33 -3,3 3.68,-1.8 7.56,-4.24 11,-6 -1.39,0.37 -1.05,0.88 -2,0 0,0 -0.86,-0.22 -1,0 -1.37,2.2 -2.9,2.03 -5,3 z m 23,-7 c -5.58,0.54 -9.77,2.59 -15,4 -3.44,1.76 -7.32,4.2 -11,6 -1.89,0.92 -4.18,1.7 -6,3 -0.97,0.88 -1.41,2.83 -3,3 1.06,5.77 10.93,12.46 5,18 -1.72,2.29 -3.84,2.59 -6,4 -6.01,5.62 -12.42,11.46 -17,18 -6.46,9.23 -13.6,19.54 -18,30 2.82,-4.94 7.6,-10.67 9.92,-16.08 2.33,-5.4 7.26,-12.97 12.08,-12.92 -2.35,-5.49 7.31,-6.91 8,-12 3.71,1.36 5.01,6.58 10,7 36.95,-39.04 106.68,-22.12 129,26 1.23,-0.23 2.75,0 4,0 2.33,0 4.67,0 7,0 3.43,-0.53 6.81,-1.92 11,-2 3.32,-0.07 5.97,-0.43 9,-1 -2.02,-1.72 -1.54,-8.72 -4.23,-10.77 -2.69,-2.05 -3.39,-6.52 -4.77,-9.23 -0.46,-0.65 -1.48,-1.28 -2,-2 -6.33,-9.34 -17.17,-14.31 -20,-24 -6.1,2.35 -10.09,-4.46 -14,-8 1.81,-0.6 5.23,3.65 5,0 -3.02,-0.63 -8.15,-2.72 -10,1 11.08,7.73 21.96,16.13 28,28 -4.14,-1.59 -6.2,-9.04 -11,-6 -3.44,-11.11 -15.67,-14.13 -24.77,-21.23 C 291.13,99.67 276.86,99 266,96 c -10.86,-3 -31.79,7.6 -34,-7 10.09,-1.6 20.11,-3.41 30,-2 0.35,-2.35 -3.53,-3.76 -1,-6 -10.34,-0.16 -21.17,1.95 -32,3 z m -17,4 c 0.95,0.88 0.61,0.37 2,0 5.23,-1.41 9.42,-3.46 15,-4 3.77,-0.96 9.12,-3.37 13,-4 -9.4,0.51 -21.99,2.95 -30,8 z M 334,58 c -2,-5.38 -9.53,-7.83 -15,-8 2.29,5.13 9.51,7.46 15,8 z m -92,22 c -3.88,0.63 -9.23,3.04 -13,4 10.83,-1.05 21.66,-3.16 32,-3 -2.53,2.24 1.35,3.65 1,6 -9.89,-1.41 -19.91,0.4 -30,2 2.21,14.6 23.14,4 34,7 10.86,3 25.13,3.67 34.23,10.77 9.1,7.1 21.33,10.12 24.77,21.23 4.8,-3.04 6.86,4.41 11,6 -6.04,-11.87 -16.92,-20.27 -28,-28 1.85,-3.72 6.98,-1.63 10,-1 0.23,3.65 -3.19,-0.6 -5,0 3.91,3.54 7.9,10.35 14,8 2.83,9.69 13.67,14.66 20,24 -4.84,-6.64 -7.65,-11.34 -13.3,-17.7 -5.66,-6.35 -12.87,-9.72 -9.7,-18.3 4.96,-13.01 6.4,-23.75 10.67,-37.33 C 338.94,50.09 316.96,43.91 313.3,57.3 309.65,70.7 302.46,76.32 298,89 c -3.23,-1.63 -6.44,-3.4 -10,-4 -1.27,-7.76 0.37,-19.87 -2.02,-26.98 -2.4,-7.1 1.59,-20.04 -4.98,-24.02 -2.96,5.62 -14.7,3.36 -20,1 0.35,-0.8 1.37,-1.59 2,-2 -8.76,2.51 -4.54,14.28 -6.07,21.93 -1.54,7.65 -2.7,16.95 -2.93,25.07 -3.99,0.16 -8.01,-0.22 -12,0 m 92,-22 c -5.49,-0.54 -12.71,-2.87 -15,-8 5.47,0.17 13,2.62 15,8 z M 263,33 c -0.63,0.41 -1.65,1.2 -2,2 5.3,2.36 17.04,4.62 20,-1 -4.67,-2.83 -12.92,-2.58 -18,-1 z"
         style="display:inline;fill:#f6a2a1;fill-opacity:1"
         inkscape:label="seleccion" />
   </g>
   <g
      id="elemento-3"
      style="display:inline">
      <path
         id="seleccion"
         d="m 244,254 c 3,-0.36 4.75,1.21 7,2 1.55,0.23 3.28,0.76 5,1 5.65,0.8 9.33,2.53 14,5 5.06,1.82 13.68,3.85 18.69,0.69 5.02,-3.15 6.72,-8.48 11.31,-11.69 0.22,-0.36 0,-1 0,-1 -2.2,-2.91 13.03,-15.46 16,-18 3.16,-2.7 5.98,-5.06 10,-6 0.47,-0.11 1,0 1,0 4.51,-6.92 16.75,-9.98 24,-12 3.56,-1.45 6.74,-3.04 11,-4 5.95,-1.34 10.94,-2.88 17,-4 0.78,-0.14 2.77,-0.76 4,-1 14.88,-2.9 29.53,-6.16 45,-7 0.78,-1.94 3.43,-0.61 5,-1 -3.73,-10.33 -0.22,-24.46 -13,-22 -12.78,2.46 -21.92,0.19 -32.93,3.07 -11,2.88 -20.07,3.65 -29.85,7.15 -9.77,3.5 -18.22,4.9 -26.99,9.01 -8.77,4.1 -16.99,7.47 -25.15,11.85 -8.16,4.38 -14.67,8.93 -22,14 -7.34,5.06 -15.13,9.26 -21.33,15.67 -6.2,6.41 -12.37,11.34 -17.75,18.25 z m 195,-93 c -0.32,-1.25 -0.61,-2.82 -1,-4 -6.32,-0.26 -5.11,9.27 -5,15 0.11,5.73 -1.1,14.75 2,20 5.87,-6.16 5.07,-22.79 4,-31 z m -12,-5 c -43.39,2.28 -86.19,7.58 -126,23 7.53,0.73 16.03,-3.38 24.32,-4.68 8.3,-1.29 16.91,-3.64 25.46,-4.54 8.55,-0.9 17.81,-2.02 26.22,-3.78 8.41,-1.76 19.8,-0.45 27.99,-2.01 8.2,-1.55 22.18,1.3 22.01,-7.99 z m -35,0 c -4.93,0.48 -10.38,2 -16,2 -5.22,0 -10.05,0.83 -15,1 -5.86,1.61 -11.21,3 -18,3 -1.67,0 -3.33,0 -5,0 -2.33,0 -4.67,0 -7,0 -2.16,0.37 -4.18,1.88 -7,2 -1.33,0.06 -2.67,-0.03 -4,0 -3.17,0.51 -6.03,2.28 -10,2 -3.67,0.62 -7.74,1.66 -12,2 -15.05,1.19 -22.86,3.05 -34,-9 1.67,3.08 5.27,4.89 7,8 -6.25,-0.41 -14.13,0.72 -19.78,2.22 -5.64,1.51 -10.11,4.12 -14.47,7.53 -4.36,3.41 -7.9,6.17 -11.45,10.55 -3.54,4.39 -4.71,8.99 -8.38,13.62 -3.66,4.64 -2.46,10.98 -5.99,16.01 -3.54,5.03 -1.43,12.73 -1.93,18.07 -0.5,5.34 2.76,17.69 0,22 4.87,-1.3 9.74,-2 15,-2 6.17,0 12.88,-0.75 19,0 0.23,-0.05 0.79,-0.73 1,-1 5.38,-6.91 11.55,-11.84 17.75,-18.25 6.2,-6.41 13.99,-10.61 21.33,-15.67 7.33,-5.07 13.84,-9.62 22,-14 8.16,-4.38 16.38,-7.75 25.15,-11.85 8.77,-4.11 17.22,-5.51 26.99,-9.01 9.78,-3.5 18.85,-4.27 29.85,-7.15 11.01,-2.88 20.15,-0.61 32.93,-3.07 12.78,-2.46 9.27,11.67 13,22 -1.57,0.39 -4.22,-0.94 -5,1 15.44,-0.84 14.09,-25.05 11,-37 1.07,8.21 1.87,24.84 -4,31 -3.1,-5.25 -1.89,-14.27 -2,-20 -0.11,-5.73 -1.32,-15.26 5,-15 -2.18,-6.61 -15.12,-3.38 -21.78,-2.78 -6.66,0.6 -16.76,1.78 -24.22,1.78 m 35,0 c 0.17,9.29 -13.81,6.44 -22.01,7.99 -8.19,1.56 -19.58,0.25 -27.99,2.01 -8.41,1.76 -17.67,2.88 -26.22,3.78 -8.55,0.9 -17.16,3.25 -25.46,4.54 -8.29,1.3 -16.79,5.41 -24.32,4.68 39.81,-15.42 82.61,-20.72 126,-23 z m -187,-8 c -15.53,10.12 -27.52,32.26 -36,47 -1.63,3.65 -3.51,7.25 -5,11 -1.37,3.45 -3.54,6.84 -5,10 -1.74,5.21 -3.25,11.28 -6,16 -0.82,3.37 -0.72,7.07 -2,10 -4.75,10.88 -18.23,10.99 -20,24 12.01,1.3 27.54,-4.21 39,-7 1.1,-0.48 2.56,-1.62 4,-2 2.76,-4.31 -0.5,-16.66 0,-22 0.5,-5.34 -1.61,-13.04 1.93,-18.07 3.53,-5.03 2.33,-11.37 5.99,-16.01 3.67,-4.63 4.84,-9.23 8.38,-13.62 3.55,-4.38 7.09,-7.14 11.45,-10.55 4.36,-3.41 8.83,-6.02 14.47,-7.53 5.65,-1.5 13.53,-2.63 19.78,-2.22 -1.73,-3.11 -5.33,-4.92 -7,-8 -2.4,-3.05 -7.77,-13.73 -11,-15 -3.91,1.75 -9.02,2.12 -13,4 z M 134,82 c 5.75,5.14 12.23,9.68 17,16 3.84,-1.4 7.46,-4.09 11,-6 0.43,-1.95 2.67,-2.01 4,-3 -4.62,-7.53 -11.2,-15.19 -19,-20 -0.97,5.29 -14.22,9.6 -13,13 z m 20,-32 c -7.61,6.76 -13.24,13.94 -19,22 -0.93,1.53 -1.23,3.17 -1,5 10.42,-5.8 20.63,-16.67 24,-28 -1.59,-0.45 -2.69,0.53 -4,1 z m 0,0 c 1.31,-0.47 2.41,-1.45 4,-1 -3.37,11.33 -13.58,22.2 -24,28 -0.23,-1.83 0.07,-3.47 1,-5 -3.23,4.52 -4.94,5.43 -1,10 -1.22,-3.4 12.03,-7.71 13,-13 7.8,4.81 14.38,12.47 19,20 -1.33,0.99 -3.57,1.05 -4,3 3.83,-2.07 14.17,-10.04 18.25,-7.25 4.08,2.79 10.57,9.71 11.75,14.25 3.29,-4.25 9.53,-5.93 14,-8 2.1,-0.97 3.63,-0.8 5,-3 -4.54,-6.49 -11.34,-12.24 -17.25,-17.75 -5.92,-5.5 -12.85,-9.58 -19.5,-14.5 C 167.59,50.84 161.02,43.76 154,50 Z"
         inkscape:label="seleccion"
         style="display:inline;fill:#3f6eb4;fill-opacity:1;stroke:none;stroke-opacity:0.303797" />
   </g>
   <g
      id="elemento-4"
      style="display:inline">
      <path
         id="seleccion"
         d="m 165,266 c 0.25,-0.25 1,0 1,0 1.77,-13.01 15.25,-13.12 20,-24 0.57,-2.35 0,-5.57 0,-8 0,-0.5 -0.08,-1.51 0,-2 0,0 -0.75,0.25 -1,0 0.45,6.76 -3.46,16.85 -9.77,18.23 -6.31,1.38 -12.86,12.36 -10.23,15.77 z M 50,235 c -16.34,44.83 7.53,85.39 26,124 0.33,-15.87 8.89,-33.89 17.75,-47.25 8.87,-13.35 27.15,-18.8 41.25,-23.75 12.45,-4.37 21.74,-10.71 30,-21 0.24,-0.3 0,-1 0,-1 -2.63,-3.41 3.92,-14.39 10.23,-15.77 6.31,-1.38 10.22,-11.47 9.77,-18.23 0,0 -0.02,-0.5 0,-1 -3.91,9.19 -9.46,12.67 -19,15 -14.7,5.63 -21.44,24.25 -38.99,27.01 -17.55,2.76 -37.48,10.49 -54.26,1.24 C 55.96,265.01 51.66,246.79 53,229 c -0.86,1.85 -2.23,3.89 -3,6 z m 5,-10 c -0.64,1.18 -1.38,2.66 -2,4 -1.34,17.79 2.96,36.01 19.75,45.25 16.78,9.25 36.71,1.52 54.26,-1.24 17.55,-2.76 24.29,-21.38 38.99,-27.01 -5.37,2.98 -11.64,-0.43 -16,3 -6.6,-13.32 -26.86,2.92 -38,-1 -2.72,3.16 1.97,3.71 3,6 -3.28,1.22 -6.47,2.78 -10,3 0.19,-3.46 4.6,-5.28 4,-9 -9.3,0.88 -19.9,1.01 -28.77,-2.23 C 71.36,242.53 66.27,237.02 60,232 c 0,-3.33 0,-6.67 0,-10 -1.48,0.78 -4.95,2.94 -5,3 z m 10,-18 c 0,0 0,0.5 0,1 5.36,-3.74 9.12,-9.75 14,-14 -5.02,3.73 -8.82,9.38 -14,13 z m 0,2 c -2.69,4.32 -6.91,8.34 -9,13 -0.41,0.9 -0.47,2.03 -1,3 0.05,-0.06 3.52,-2.22 5,-3 0,3.33 0,6.67 0,10 6.27,5.02 11.36,10.53 20.23,13.77 8.87,3.24 19.47,3.11 28.77,2.23 0.6,3.72 -3.81,5.54 -4,9 3.53,-0.22 6.72,-1.78 10,-3 -1.03,-2.29 -5.72,-2.84 -3,-6 11.14,3.92 31.4,-12.32 38,1 4.36,-3.43 10.63,-0.02 16,-3 9.54,-2.33 15.09,-5.81 19,-15 0.09,-2.32 -0.66,-3.9 -1,-6 -4.12,-2.56 0.3,-20.46 -4,-14 -0.47,-2.52 1.03,-6.23 -1,-8 -0.77,2.7 1.82,8.64 -2,9 -0.82,-2.9 2.33,-5.5 0,-8 -2.91,2.72 -1.75,3.42 -5,3 -1.56,-4.7 5.11,-5.6 -1,-8 1.31,9.06 -2.59,18.04 -8.77,24.23 -6.18,6.19 -13,6.11 -20.16,5.7 -7.15,-0.42 -21.9,0.1 -29.97,-1.03 -8.07,-1.12 -17.62,-3.23 -26.1,-3.9 -8.48,-0.67 -19.76,0.7 -21,-9 7.35,-10.07 14.8,-19.57 25,-27 -4.45,2.56 -8.73,7.23 -12.75,10.25 C 73.22,201.26 69.99,208.47 65,209 Z m 98,-3 c 10.2,5.08 8.25,-14.3 0.25,-19.25 -8.01,-4.94 -18.35,-10.13 -28.25,-9.75 -9.9,0.38 -23.74,2.5 -31.92,7.08 C 94.9,188.66 84.8,191.59 85,200 c 10.39,-1.58 19.82,1.64 30,3 10.18,1.36 21.1,0.5 29,5 2.22,-3.96 6.64,-1.19 9,-3 -2.28,2.7 -4.33,5.96 -7,8 0.06,2.3 3.03,3.55 5,4 -0.47,-2.93 4.84,-2.37 4,-6 4.03,0.74 7.45,-0.99 8,-5 z M 90,188 c -10.2,7.43 -17.65,16.93 -25,27 1.24,9.7 12.52,8.33 21,9 8.48,0.67 18.03,2.78 26.1,3.9 8.07,1.13 22.82,0.61 29.97,1.03 7.16,0.41 13.98,0.49 20.16,-5.7 6.18,-6.19 10.08,-15.17 8.77,-24.23 6.11,2.4 -0.56,3.3 1,8 3.25,0.42 2.09,-0.28 5,-3 2.33,2.5 -0.82,5.1 0,8 3.82,-0.36 1.23,-6.3 2,-9 2.03,1.77 0.53,5.48 1,8 4.3,-6.46 -0.12,11.44 4,14 -2.76,-16.94 8.2,-38.18 -12,-47 -5.05,-1.58 -10.53,-3.2 -16,-3 -4.72,3.91 -18.28,-2.03 -24.99,0.01 -6.71,2.03 -15.31,2.55 -21.94,5.06 -6.62,2.52 -12.87,4.37 -19.07,7.93 m 73,18 c -0.55,4.01 -3.97,5.74 -8,5 0.84,3.63 -4.47,3.07 -4,6 -1.97,-0.45 -4.94,-1.7 -5,-4 2.67,-2.04 4.72,-5.3 7,-8 -2.36,1.81 -6.78,-0.96 -9,3 -7.9,-4.5 -18.82,-3.64 -29,-5 -10.18,-1.36 -19.61,-4.58 -30,-3 -0.2,-8.41 9.9,-11.34 18.08,-15.92 8.18,-4.58 22.02,-6.7 31.92,-7.08 9.9,-0.38 20.24,4.81 28.25,9.75 8,4.95 9.95,24.33 -0.25,19.25 z m -40,-31 c -16.22,2.11 -30.9,9.26 -44,19 -4.88,4.25 -8.64,10.26 -14,14 0,0 0.22,0.64 0,1 4.99,-0.53 8.22,-7.74 12.25,-10.75 4.02,-3.02 8.3,-7.69 12.75,-10.25 6.2,-3.56 12.45,-5.41 19.07,-7.93 6.63,-2.51 15.23,-3.03 21.94,-5.06 6.71,-2.04 20.27,3.9 24.99,-0.01 0,0 0.25,-0.75 0,-1 0,0 -0.5,0 -1,0 -10.73,0 -21.62,-0.35 -32,1 z m 0,0 c 10.38,-1.35 21.27,-1 32,-1 0,0 -0.17,-0.57 0,-1 -10.6,-0.96 -22.45,-0.22 -32,2 z"
         style="display:inline;fill:#a92429;fill-opacity:1"
         inkscape:label="seleccion" />
   </g>
   <g
      id="elemento-7"
      style="display:inline">
      <path
         id="seleccion"
         d="m 362,210 c -3.43,1.22 -7.16,2.93 -11,4 -7.25,2.02 -19.49,5.08 -24,12 5.54,-5.65 17.34,-7.64 25.02,-10.98 7.69,-3.33 21.08,-8.12 29.98,-7.02 -0.7,-0.28 -2.27,-1.82 -3,-2 -6.06,1.12 -11.05,2.66 -17,4 z m 38,108 c 0.07,3.63 1.49,10.29 2,14 0,-2 0,-4 0,-6 0,-6.1 -0.94,-11.84 1,-16 -1.86,3 -3.08,3.89 -3,8 z m 28,-64 c 4.9,0 16.08,-2.06 20,1 -2.08,-4.18 -15.67,-2 -20,-2 0,0 -0.04,1 0,1 z m 0,0 c -0.04,0 0,-1 0,-1 -3.77,0 -14.94,1.97 -16,-3 0.46,6.28 11.14,4 16,4 z m -16,-4 c 1.06,4.97 12.23,3 16,3 4.33,0 17.92,-2.18 20,2 0.17,0.33 0.95,0.77 1,1 0.43,-1.6 -1.37,-2.46 -1,-4 -5.83,-0.97 -13,0.76 -19,0 -6,-0.76 -15.93,3.17 -16,-5 3.05,0.08 4.95,-2.52 7,-4 -3.28,1.62 -8.37,1.99 -8,7 z m -112,0 c 0.79,-1.62 2.43,-3.23 4,-4 0,0 -0.2,-0.6 0,-1 2.17,-4.43 8.47,-9.47 12,-13 -2.97,2.54 -18.2,15.09 -16,18 z m 4,-5 c -0.2,0.4 0,1 0,1 0.4,-0.2 1,0 1,0 5.69,-3.64 11.08,-11.63 16,-16 -6.26,4.12 -10.78,10.65 -17,15 z m 78,50 c 28.98,4.84 31.19,-30.03 20.3,-49.3 -10.89,-19.28 -40.4,-26.16 -48.3,0.3 2.89,1.86 2.49,2.5 1,5 4.75,-1.91 3.25,5.59 7,7 -1.91,3.96 -8.84,4.39 -7.97,9.97 0.88,5.57 7.85,-0.26 7.97,-3.97 3.34,0.92 1.01,5.04 3,7 0.69,-3.97 1.34,-3.57 5,-5 -3.91,4.48 3.27,6.6 3.81,10.75 0.53,4.15 1.73,8.05 3.19,1.25 2.2,2.56 -0.13,5.25 0,8 2.09,-1.98 3.97,1.43 2,3 4.36,0.9 8.97,3.39 3,6 z m -66,-63 c -3.53,3.53 -9.83,8.57 -12,13 6.22,-4.35 10.74,-10.88 17,-15 2.07,-1.36 3.55,-1.77 5,-4 -4.02,0.94 -6.84,3.3 -10,6 z m 109,-17 c -6.67,2.14 -15.1,6.35 -22,7 -3.9,0.37 -6.59,-5.82 -10,-9 -0.59,-0.36 -1.45,-0.49 -2,-1 0.44,1.67 2.46,2.34 3,4 -12.21,-1.1 -26.8,0.71 -36.25,7.75 -9.44,7.04 -13.5,17.75 -15.75,28.25 -2.25,10.5 3.02,28.09 12,29 2.16,11.03 13.52,13.81 22.92,19.08 9.41,5.26 26.45,2.49 33.08,-6.08 2.16,-4.68 2.63,-9.85 3,-15 9.7,-0.04 15.36,-4.77 25.33,-4.67 9.97,0.1 12.86,-8.48 10.67,-18.33 -0.05,-0.23 -0.83,-0.67 -1,-1 -3.92,-3.06 -15.1,-1 -20,-1 -4.86,0 -15.54,2.28 -16,-4 -0.37,-5.01 4.72,-5.38 8,-7 8.01,-3.96 25.44,-11.44 23,-21 -3.15,-12.34 -8.1,-10.17 -18,-7 m -43,80 c 5.97,-2.61 1.36,-5.1 -3,-6 1.97,-1.57 0.09,-4.98 -2,-3 -0.13,-2.75 2.2,-5.44 0,-8 -1.46,6.8 -2.66,2.9 -3.19,-1.25 -0.54,-4.15 -7.72,-6.27 -3.81,-10.75 -3.66,1.43 -4.31,1.03 -5,5 -1.99,-1.96 0.34,-6.08 -3,-7 -0.12,3.71 -7.09,9.54 -7.97,3.97 -0.87,-5.58 6.06,-6.01 7.97,-9.97 -3.75,-1.41 -2.25,-8.91 -7,-7 1.49,-2.5 1.89,-3.14 -1,-5 7.9,-26.46 37.41,-19.58 48.3,-0.3 10.89,19.27 8.68,54.14 -20.3,49.3 z m 43,-80 c 9.9,-3.17 14.85,-5.34 18,7 -0.39,-3.63 -1.26,-9.68 -5.78,-12.22 -4.52,-2.54 -9.62,3.88 -12.22,5.22 z m -98,11 c 0,0 -0.53,-0.11 -1,0 -1.45,2.23 -2.93,2.64 -5,4 -4.92,4.37 -10.31,12.36 -16,16 8.94,3.38 11.22,17.37 19.25,22.75 8.04,5.37 12.86,16.28 20.5,22.5 7.65,6.22 14.04,15.4 22.48,20.52 8.44,5.12 22.28,12.99 30.77,4.23 1.39,-0.09 0.72,4.19 2,2 -0.08,-4.11 1.14,-5 3,-8 3.09,-4.99 5.15,-10.58 7,-16 -6.63,8.57 -23.67,11.34 -33.08,6.08 -9.4,-5.27 -20.76,-8.05 -22.92,-19.08 -8.98,-0.91 -14.25,-18.5 -12,-29 2.25,-10.5 6.31,-21.21 15.75,-28.25 9.45,-7.04 24.04,-8.85 36.25,-7.75 -0.54,-1.66 -2.56,-2.33 -3,-4 -2.58,-2.33 -6.05,-2.82 -9,-4 -8.9,-1.1 -22.29,3.69 -29.98,7.02 -7.68,3.34 -19.48,5.33 -25.02,10.98 z m 52,-20 c 0.73,0.18 2.3,1.72 3,2 2.95,1.18 6.42,1.67 9,4 -1.94,-1.81 -5.49,-6.48 -8,-7 -1.23,0.24 -3.22,0.86 -4,1 z"
         style="display:inline;fill:#a92429;fill-opacity:1" />
   </g>
   <g
      id="elemento-6"
      style="display:inline">
      <path
         id="seleccion"
         d="m 353,318 c -1.63,12.07 0.27,27.12 0,40 -0.27,12.88 -0.33,27.28 -3.02,38.98 -2.7,11.69 -4.71,22.67 -9.06,32.94 -4.34,10.28 -7.7,20.17 -12.61,29.38 -4.92,9.22 -10.93,17.2 -16.56,25.45 -5.64,8.25 -11.25,15.8 -19,23 -7.74,7.2 -16.55,18.33 -4.98,12.02 11.57,-6.31 13.77,-11.89 22.48,-19.52 8.7,-7.64 12.72,-14.03 19.45,-22.55 6.72,-8.53 8.95,-18.05 14.53,-27.47 5.58,-9.42 9.57,-18.4 12.84,-29.16 3.28,-10.75 6.25,-22.44 7.93,-34.07 1.68,-11.63 1.12,-27.55 -1.07,-38.93 C 361.73,336.69 356.62,328.71 353,318 Z m -18.31,69.69 c 3.87,-7.05 5.51,-14.48 9.31,-20.69 2.86,-1.05 2.68,4.43 5,2 0.02,23.25 -7.99,49.18 -16.68,69.32 -8.69,20.15 -17.21,37.79 -30.07,54.93 -12.86,17.14 -27.24,29.62 -42.25,42.75 26.26,-11.1 48.5,-27.8 67.75,-50.25 19.26,-22.45 33.35,-48.16 39.32,-77.68 5.98,-29.52 3.8,-72 -17.07,-94.07 0.63,5.84 1.11,13.15 1,19 -0.11,5.85 -0.16,13.79 0,19 0.16,5.21 -0.45,14.5 -4,9 -0.89,4.15 -2.01,5.09 -6,6 m 12,-49 c 3.62,10.71 8.73,18.69 10.93,30.07 2.19,11.38 2.75,27.3 1.07,38.93 -1.68,11.63 -4.65,23.32 -7.93,34.07 -3.27,10.76 -7.26,19.74 -12.84,29.16 -5.58,9.42 -7.81,18.94 -14.53,27.47 -6.73,8.52 -10.75,14.91 -19.45,22.55 -8.71,7.63 -10.91,13.21 -22.48,19.52 -11.57,6.31 -2.76,-4.82 4.98,-12.02 7.75,-7.2 13.36,-14.75 19,-23 5.63,-8.25 11.64,-16.23 16.56,-25.45 4.91,-9.21 8.27,-19.1 12.61,-29.38 4.35,-10.27 6.36,-21.25 9.06,-32.94 2.69,-11.7 2.75,-26.1 3.02,-38.98 0.27,-12.88 -1.63,-27.93 0,-40 z m -12,49 c 3.99,-0.91 5.11,-1.85 6,-6 3.55,5.5 4.16,-3.79 4,-9 -0.16,-5.21 -0.11,-13.15 0,-19 0.11,-5.85 -0.37,-13.16 -1,-19 20.87,22.07 23.05,64.55 17.07,94.07 -5.97,29.52 -20.06,55.23 -39.32,77.68 C 308.5,508.2 286.26,524.9 260,536 c 15.01,-13.13 29.39,-25.61 42.25,-42.75 12.86,-17.14 21.38,-34.78 30.07,-54.93 8.69,-20.14 16.7,-46.07 16.68,-69.32 -2.32,2.43 -2.14,-3.05 -5,-2 -3.8,6.21 -5.44,13.64 -9.31,20.69 -3.86,7.06 -3.63,17.02 -6.69,24.31 -3.06,7.29 -6.99,13.92 -10.25,20.75 -3.26,6.84 -6.69,14.3 -10.85,20.15 -4.16,5.85 -8.07,11.64 -12.65,17.35 l -91.1608,73.84785 C 220.4792,558.00785 215.46,552.84 236,560 c 0.45,0.16 1.5,0.02 2,0 2.13,-0.07 3.13,0.58 5,1 5.12,-1.51 14.14,1.58 19.3,-1.7 5.16,-3.28 8.32,-6.58 13.7,-8.3 -4.34,-4.86 5.57,-4.58 8.92,-6.08 3.35,-1.5 7.21,-6.33 8.08,-9.92 10.49,-2.06 14.72,-14.8 22.1,-21.9 7.38,-7.1 12.53,-15.19 19.13,-23.87 6.59,-8.68 9.87,-17.54 15.46,-25.54 5.6,-7.99 6.53,-22.59 15.31,-25.69 -0.22,-5.01 3.6,-8.23 -1,-11 5.85,-6.97 5.83,-16.3 8.67,-26.33 2.84,-10.03 2.22,-23.07 1.53,-33.42 -0.69,-10.36 -2.05,-21.05 -4.21,-31.24 C 367.84,325.81 363.66,318 362,308 c -5.21,-2.51 -8.9,-7.44 -13.25,-11.75 -4.35,-4.32 -7.67,-7.15 -12,-12 M 305,247 c 3.82,3.66 7.6,8.2 10,13 -3.83,2.95 -6.41,8.28 -4,13 5.2,-2.4 10.12,-8.07 13.75,-1.75 3.64,6.32 7.67,8.14 12,13 4.33,4.85 7.65,7.68 12,12 4.35,4.31 8.04,9.24 13.25,11.75 1.66,10 5.84,17.81 7.99,28.01 2.16,10.19 3.52,20.88 4.21,31.24 0.69,10.35 1.31,23.39 -1.53,33.42 -2.84,10.03 -2.82,19.36 -8.67,26.33 4.6,2.77 0.78,5.99 1,11 -8.78,3.1 -9.71,17.7 -15.31,25.69 -5.59,8 -8.87,16.86 -15.46,25.54 -6.6,8.68 -11.75,16.77 -19.13,23.87 -7.38,7.1 -11.61,19.84 -22.1,21.9 -0.87,3.59 -4.73,8.42 -8.08,9.92 -3.35,1.5 -13.26,1.22 -8.92,6.08 -5.38,1.72 -8.54,5.02 -13.7,8.3 -5.16,3.28 -14.18,0.19 -19.3,1.7 7.89,1.79 17.1,1.33 25,0 17.21,-2.91 36.04,-14.91 49,-27 1.49,-1.39 2.48,-1.95 4,-3 5.83,-4.71 11.7,-11.7 17,-17 10.86,-17.85 23.76,-28.5 33.23,-47.77 9.47,-19.27 17.42,-36.23 22.99,-58.01 5.58,-21.77 7.78,-48.17 7.78,-72.22 0,-1.33 0,-2.67 0,-4 -0.51,-3.71 -1.93,-10.37 -2,-14 -1.28,2.19 -0.61,-2.09 -2,-2 -8.49,8.76 -22.33,0.89 -30.77,-4.23 -8.44,-5.12 -14.83,-14.3 -22.48,-20.52 -7.64,-6.22 -12.46,-17.13 -20.5,-22.5 -8.03,-5.38 -10.31,-19.37 -19.25,-22.75 0,0 -0.25,0.76 0,1 z"
         style="display:inline;fill:#a92429;fill-opacity:1"
         inkscape:label="seleccion" />
   </g>
   <g
      id="elemento-5"
      style="display:inline">
      <path
         id="seleccion"
         style="display:inline;fill:#9b181e;fill-opacity:1;stroke:none;stroke-opacity:0.303797"
         d="m 284,266 c -4.78,0.34 -8.63,-1.08 -13,-2 -3.67,-0.77 -6.52,-1.7 -10,-3 0.17,1.29 1.7,1.75 2,3 -4.4,2.34 -7.08,-3.59 -11,0 2.61,2.54 6.59,4.45 10,6 -3.51,-3.77 1.07,-4.5 5,-4 -3.93,5.56 0.17,6.14 5,7 -4.39,-2.47 -3.16,-6.83 2,-3 -1.06,-3.91 3.98,-3.58 6,-2 -1.83,1.55 -5.43,0.99 -4,5 2.36,-3.54 7.23,-0.21 10.75,1.25 3.53,1.46 9.82,6.81 5.25,1.75 4.17,-0.97 7.96,2.23 11,2 -6.29,3.82 -17.36,-0.3 -21,7 4.36,1.61 9.28,0.83 14,1 1.97,5.74 9.31,8.04 6,15 -0.19,0.41 0.11,1.53 0,2 2.51,1.53 2.36,1.66 4,4 1.93,-0.97 0.89,-5.45 4,-5 14.38,29.18 8.9,70.4 -4.08,98.92 -12.97,28.52 -23.44,51.34 -51.69,69.31 -28.25,17.97 -61.34,-8.74 -74.91,-34.55 C 165.75,409.87 148.85,381.24 151,352 c -3.09,-0.6 -5.18,0.39 -6,3 -1.29,-4.81 4.15,-5.02 7,-7 1.24,-16.4 14.83,1.18 14,11 -0.83,9.82 1.96,24.31 9.25,31.75 7.28,7.45 12.58,14.02 18.5,22.5 5.91,8.48 8.19,20.41 11.25,29.75 1.54,-31.44 -30.37,-49.89 -32,-80 22.57,-1.17 37.6,17.41 50,34 -2.63,-10.03 -7.68,-18.15 -15.25,-25.75 C 200.18,363.64 190.7,359 180.02,357.98 169.35,356.95 169.01,343.09 160.25,336.75 151.49,330.41 145.06,323.98 137,321 c 5.59,7 15.71,8.48 21,16 -8.95,0.76 -17.25,-8.14 -26,-11 -3.16,10.45 0.59,22.07 4.7,31.3 4.11,9.24 9.38,15.07 13.53,24.47 4.14,9.41 6.75,21.33 3.77,32.23 -2.98,10.9 3.47,20.79 10.92,27.08 7.45,6.29 15.42,11.74 16.3,21.7 0.89,9.96 3.55,19.62 14.03,23.97 10.49,4.34 12.76,10.87 19.75,16.25 2.14,-4.59 13.18,1.49 21,2 7.82,0.51 19.07,-1.67 25.77,-5.23 6.71,-3.56 13.21,-7.14 18.33,-12.67 5.12,-5.53 9.56,-11.15 14.15,-16.85 4.58,-5.71 8.49,-11.5 12.65,-17.35 4.16,-5.85 7.59,-13.31 10.85,-20.15 3.26,-6.83 7.19,-13.46 10.25,-20.75 14.61575,-48.22588 31.90582,-101.14213 -14,-138 -1.76,8.55 -1.46,20.66 -8,26 -2.64,-4.48 -1.95,-9.83 -2,-15 -2.57,-0.32 -17.01,1.6 -15.74,-2.74 1.26,-4.35 13.91,0.64 16.74,-1.26 1.91,-4.75 2.36,-9.92 3,-15 -1.98,-1.76 -11.32,-4.45 -12,-7 -3.13,3.73 -7.2,6.66 -12,7 m 12,-7 c 0.68,2.55 10.02,5.24 12,7 -0.64,5.08 -1.09,10.25 -3,15 -2.83,1.9 -15.48,-3.09 -16.74,1.26 -1.27,4.34 13.17,2.42 15.74,2.74 0.05,5.17 -0.64,10.52 2,15 6.54,-5.34 6.24,-17.45 8,-26 28.91,19.34 34.16,59.9 27,93 h 3 c -3.8,6.21 -5.44,13.64 -9.31,20.69 -3.86,7.06 -3.63,17.02 -6.69,24.31 -3.06,7.29 -6.99,13.92 -10.25,20.75 -3.26,6.84 -6.69,14.3 -10.85,20.15 -4.16,5.85 -8.07,11.64 -12.65,17.35 -4.59,5.7 -9.03,11.32 -14.15,16.85 -5.12,5.53 -11.62,9.11 -18.33,12.67 -6.7,3.56 -17.95,5.74 -25.77,5.23 -7.82,-0.51 -18.86,-6.59 -21,-2 -6.99,-5.38 -9.26,-11.91 -19.75,-16.25 -10.48,-4.35 -13.14,-14.01 -14.03,-23.97 -0.88,-9.96 -8.85,-15.41 -16.3,-21.7 -7.45,-6.29 -13.9,-16.18 -10.92,-27.08 2.98,-10.9 0.37,-22.82 -3.77,-32.23 -4.15,-9.4 -9.42,-15.23 -13.53,-24.47 -4.11,-9.23 -7.86,-20.85 -4.7,-31.3 8.75,2.86 17.05,11.76 26,11 -5.29,-7.52 -15.41,-9 -21,-16 -4.16,-1.54 -15.59,-9.57 -14,-15 1.6,-5.44 6.97,-14.92 12,-18 -14.1,4.95 -32.38,10.4 -41.25,23.75 C 84.89,325.11 76.33,343.13 76,359 c 9.64,20.16 13.23,47.28 24.23,66.77 11,19.5 22.72352,36.82668 34.99,55.01 12.00463,17.79516 46.56906,53.61169 68.73001,63.14832 l 60.25987,-43.02075 c 27.72305,-26.67123 45.76536,-51.20365 52.81558,-60.78715 17.03894,-45.30151 18.61547,-41.44218 29.07138,-84.67598 -5.21,-2.51 7.00316,-54.88444 2.65316,-59.19444 -4.35,-4.32 -7.67,-7.15 -12,-12 -4.33,-4.86 -8.36,-6.68 -12,-13 -3.63,-6.32 -8.55,-0.65 -13.75,1.75 -2.41,-4.72 0.17,-10.05 4,-13 -2.4,-4.8 -6.18,-9.34 -10,-13 -4.39,3.07 -5.71,8.07 -9,12 M 178,472 c -36.22,-43.04 -72.73,-96.13 -60,-155 13.9,4.02 4.31,20.39 8.98,31.02 4.66,10.64 7.4,21 14.79,30.21 7.39,9.2 9.66,24.96 7.23,36.77 -2.43,11.81 1.72,24.8 12.23,30.77 10.51,5.97 18.97,14.52 16.77,26.23 z M 296,347 c 4.46,19.16 1.75,44.72 -9.75,60.25 -11.5,15.53 -22.12,28.63 -22.25,46.75 3.43,-7.81 6.32,-18.07 11.25,-25.75 4.93,-7.69 11.56,-13.29 15.98,-21.02 4.42,-7.73 10.43,-17.42 10.44,-26.56 0.01,-9.14 5.1,-25.33 0.33,-33.67 -1.54,-0.22 -5.26,0.2 -6,0 z M 178,472 c 2.2,-11.71 -6.26,-20.26 -16.77,-26.23 C 150.72,439.8 146.57,426.81 149,415 c 2.43,-11.81 0.16,-27.57 -7.23,-36.77 -7.39,-9.21 -10.13,-19.57 -14.79,-30.21 -4.67,-10.63 4.92,-27 -8.98,-31.02 -12.73,58.87 23.78,111.96 60,155 z M 302,346 c 18.45,0.68 11.76,-23.59 7,-34 -1.54,-0.45 -1.12,-2.76 -3,-3 -6.42,12.16 -4.3,24.23 -4,37 z m -18,-5 c 4.61,-1.11 7.63,4.84 12,6 0.74,0.2 4.46,-0.22 6,0 0,0 0.01,-0.5 0,-1 -0.3,-12.77 -2.42,-24.84 4,-37 1.88,0.24 1.46,2.55 3,3 -0.87,-1.9 -1.72,-3.17 -3,-5 -1.64,-2.34 -1.49,-2.47 -4,-4 -2.85,12.13 -8.19,29.28 -18,38 z m 0,0 c 9.81,-8.72 15.15,-25.87 18,-38 0.11,-0.47 -0.19,-1.59 0,-2 -6.43,-4.03 -11.57,-14.5 -19.98,-13.98 -8.41,0.53 -16.25,5.27 -23.02,9.98 2.18,2.41 1.36,2.82 -1,4 7.21,13.75 9.42,29.09 22,39 -4.56,0.98 -4.85,6.15 -8,9 3.98,-1.18 8.89,-5.24 12,-8 z m -23,-80 c 3.48,1.3 6.33,2.23 10,3 -2.69,-0.91 -6.35,-2.86 -9,-4 -2.2,-0.95 -3.54,-1.82 -6,-2 -1.31,-0.1 -2.7,0.19 -4,0 2.65,1.06 6.03,1.89 9,3 z m -5,-3 c 2.46,0.18 3.8,1.05 6,2 2.67,0.81 5.36,1.05 8,2 -4.67,-2.47 -8.35,-4.2 -14,-5 0,0 -0.06,0.99 0,1 z m -4,0 c 1.3,0.19 2.69,-0.1 4,0 -0.06,-0.01 0,-1 0,-1 -1.72,-0.24 -3.45,-0.77 -5,-1 -0.94,-0.14 -2.05,0 -3,0 0.82,0.17 2.86,1.54 4,2 z m -87,9 c -8.26,10.29 -17.55,16.63 -30,21 -5.03,3.08 -10.4,12.56 -12,18 -1.59,5.43 9.84,13.46 14,15 8.06,2.98 14.49,9.41 23.25,15.75 8.76,6.34 9.1,20.2 19.77,21.23 10.68,1.02 20.16,5.66 27.73,13.27 7.57,7.6 12.62,15.72 15.25,25.75 -12.4,-16.59 -27.43,-35.17 -50,-34 1.63,30.11 33.54,48.56 32,80 -3.06,-9.34 -5.34,-21.27 -11.25,-29.75 -5.92,-8.48 -11.22,-15.05 -18.5,-22.5 -7.29,-7.44 -10.08,-21.93 -9.25,-31.75 0.83,-9.82 -12.76,-27.4 -14,-11 -2.85,1.98 -8.29,2.19 -7,7 0.82,-2.61 2.91,-3.6 6,-3 -2.15,29.24 14.75,57.87 28.32,83.68 13.57,25.81 46.66,52.52 74.91,34.55 28.25,-17.97 38.72,-40.79 51.69,-69.31 12.98,-28.52 18.46,-69.74 4.08,-98.92 -3.11,-0.45 -2.07,4.03 -4,5 1.28,1.83 2.13,3.1 3,5 4.76,10.41 11.45,34.68 -7,34 0.01,0.5 0,1 0,1 4.77,8.34 -0.32,24.53 -0.33,33.67 -0.01,9.14 -6.02,18.83 -10.44,26.56 -4.42,7.73 -11.05,13.33 -15.98,21.02 -4.93,7.68 -7.82,17.94 -11.25,25.75 0.13,-18.12 10.75,-31.22 22.25,-46.75 11.5,-15.53 14.21,-41.09 9.75,-60.25 -4.37,-1.16 -7.39,-7.11 -12,-6 -3.11,2.76 -8.02,6.82 -12,8 3.15,-2.85 3.44,-8.02 8,-9 -12.58,-9.91 -14.79,-25.25 -22,-39 2.36,-1.18 3.18,-1.59 1,-4 6.77,-4.71 14.61,-9.45 23.02,-9.98 8.41,-0.52 13.55,9.95 19.98,13.98 3.31,-6.96 -4.03,-9.26 -6,-15 -4.72,-0.17 -9.64,0.61 -14,-1 3.64,-7.3 14.71,-3.18 21,-7 -3.04,0.23 -6.83,-2.97 -11,-2 4.57,5.06 -1.72,-0.29 -5.25,-1.75 -3.52,-1.46 -8.39,-4.79 -10.75,-1.25 -1.43,-4.01 2.17,-3.45 4,-5 -2.02,-1.58 -7.06,-1.91 -6,2 -5.16,-3.83 -6.39,0.53 -2,3 -4.83,-0.86 -8.93,-1.44 -5,-7 -3.93,-0.5 -8.51,0.23 -5,4 -3.41,-1.55 -7.39,-3.46 -10,-6 3.92,-3.59 6.6,2.34 11,0 -0.3,-1.25 -1.83,-1.71 -2,-3 -2.97,-1.11 -6.35,-1.94 -9,-3 -1.14,-0.46 -3.18,-1.83 -4,-2 -1,0 -2,0 -3,0 -14.12,0 -28.39,1.56 -41.32,4.68 -12.94,3.11 -25.11,7.55 -38.68,6.32 z m 40,-8 c -11.46,2.79 -26.99,8.3 -39,7 0,0 -0.75,-0.25 -1,0 0,0 0.24,0.7 0,1 13.57,1.23 25.74,-3.21 38.68,-6.32 12.93,-3.12 27.2,-4.68 41.32,-4.68 -0.69,-0.19 -0.83,-0.86 -2,-1 -6.12,-0.75 -12.83,0 -19,0 -5.59,0.68 -13.11,2.56 -19,4 z m 4,-2 c -1.44,0.38 -2.9,1.52 -4,2 5.89,-1.44 13.41,-3.32 19,-4 -5.26,0 -10.13,0.7 -15,2 z m 34,-2 c 1.17,0.14 1.31,0.81 2,1 1,0 2,0 3,0 0.95,0 2.06,-0.14 3,0 -2.25,-0.79 -4,-2.36 -7,-2 -0.21,0.27 -0.77,0.95 -1,1 z m 27,7 c -2.64,-0.95 -5.33,-1.19 -8,-2 2.65,1.14 6.31,3.09 9,4 4.37,0.92 8.22,2.34 13,2 7.15,-1.02 12.35,-9.13 16,-15 -4.59,3.21 -6.29,8.54 -11.31,11.69 -5.01,3.16 -13.63,1.13 -18.69,-0.69 z m 30,-12 c 0,0 0.22,0.64 0,1 -3.65,5.87 -8.85,13.98 -16,15 4.8,-0.34 8.87,-3.27 12,-7 3.29,-3.93 4.61,-8.93 9,-12 -0.25,-0.24 0,-1 0,-1 0,0 -0.6,-0.2 -1,0 -1.57,0.77 -3.21,2.38 -4,4 z"
         inkscape:label="seleccion" />
   </g>
</svg>